<svg width="85" height="85" viewBox="0 0 85 85" fill="none" xmlns="http://www.w3.org/2000/svg">
  <path d="M42.3356 1.16211C18.9573 1.16211 0 20.1161 0 43.4978C0 62.2031 12.1304 78.0722 28.9518 83.6702C31.0675 84.062 31.8444 82.7518 31.8444 81.6335C31.8444 80.6242 31.8049 77.2889 31.787 73.7514C20.0089 76.3124 17.5236 68.7564 17.5236 68.7564C15.5978 63.8629 12.823 62.562 12.823 62.562C8.98211 59.9343 13.1126 59.9881 13.1126 59.9881C17.3639 60.2869 19.6025 64.351 19.6025 64.351C23.3783 70.8233 29.5063 68.9519 31.9221 67.8705C32.302 65.1339 33.3994 63.2666 34.6099 62.2094C25.2068 61.1386 15.3216 57.5085 15.3216 41.2868C15.3216 36.6649 16.9754 32.888 19.6838 29.9233C19.2442 28.8568 17.7952 24.5511 20.0939 18.7196C20.0939 18.7196 23.6489 17.5817 31.7392 23.0592C35.116 22.1209 38.7377 21.6508 42.3356 21.6348C45.9335 21.6508 49.558 22.1209 52.9414 23.0592C61.022 17.5817 64.5721 18.7196 64.5721 18.7196C66.8764 24.5511 65.4268 28.8568 64.9871 29.9233C67.7015 32.888 69.3441 36.6646 69.3441 41.2868C69.3441 57.547 59.4402 61.1276 50.0132 62.1755C51.5316 63.4894 52.8846 66.0659 52.8846 70.0154C52.8846 75.6799 52.8355 80.239 52.8355 81.6335C52.8355 82.7601 53.5975 84.0803 55.7437 83.6646C72.5558 78.0602 84.671 62.1968 84.671 43.4978C84.671 20.1161 65.7163 1.16211 42.3356 1.16211Z" fill="#ffffff"/>
  <path d="M15.8561 61.4703C15.7632 61.6804 15.4318 61.7435 15.1307 61.5994C14.8235 61.4613 14.6509 61.1744 14.7505 60.9633C14.8418 60.7468 15.1732 60.6863 15.4796 60.8318C15.7874 60.9696 15.9627 61.2591 15.8561 61.4703V61.4703ZM17.9386 63.3283C17.7368 63.5156 17.342 63.4286 17.074 63.1328C16.7971 62.8376 16.7453 62.4431 16.9502 62.2529C17.1584 62.0659 17.5412 62.1533 17.8188 62.4488C18.0957 62.7473 18.1495 63.1394 17.9383 63.3287L17.9386 63.3283ZM19.3674 65.7057C19.1077 65.886 18.6834 65.717 18.4214 65.3404C18.1621 64.9642 18.1621 64.5127 18.4271 64.3317C18.69 64.1508 19.1077 64.3135 19.3734 64.687C19.6323 65.0698 19.6323 65.5214 19.367 65.706L19.3674 65.7057ZM21.7832 68.4592C21.5511 68.7149 21.0571 68.6465 20.6952 68.2972C20.3253 67.9558 20.222 67.4714 20.4548 67.2154C20.6895 66.9591 21.1866 67.0311 21.5511 67.3774C21.9187 67.7181 22.0309 68.2062 21.7836 68.4592H21.7832ZM24.9057 69.3889C24.8037 69.7203 24.3276 69.871 23.8481 69.7302C23.3694 69.5851 23.0559 69.1966 23.1525 68.8616C23.2521 68.5279 23.7303 68.3709 24.2134 68.5216C24.6915 68.6661 25.0056 69.0515 24.906 69.3889H24.9057ZM28.4597 69.783C28.4717 70.1323 28.0649 70.4218 27.5616 70.4281C27.0552 70.4391 26.6458 70.1565 26.6405 69.8132C26.6405 69.4606 27.038 69.1737 27.544 69.1654C28.0473 69.1555 28.4597 69.436 28.4597 69.783V69.783ZM31.9507 69.6492C32.0111 69.9899 31.6612 70.3398 31.1615 70.4328C30.6701 70.5224 30.2152 70.3123 30.1524 69.9746C30.0913 69.6253 30.4479 69.2757 30.9383 69.185C31.439 69.098 31.8869 69.3029 31.9507 69.6492" fill="#ffffff"/>
</svg>
